# xmcd CD database file
#
# Track frame offsets:
#	150
#	21425
#	45175
#	55200
#	72775
#	84363
#	95063
#	114125
#	128375
#	143000
#	150238
#	164638
#	171750
#	194498
#	204025
#	215675
#	226150
#	238013
#	254350
#	258675
#	276010
#	284125
#	298113
#	307625
#
# Disc length: 4190 seconds
#
# Revision: 0
# Processed by: cddbd v1.5.1PL0 Copyright (c) Steve Scherf et al.
# Submitted via: CDex 1.51
#
DISCID=4f105c18
DTITLE=Shigeo Fukuda - Ballet Music
DYEAR=2000
DGENRE=Jazz
TTITLE0=STRETCH
TTITLE1=PLIE'S
TTITLE2=TENDUS-SLOW 1ST
TTITLE3=TENDUS-QUICK 5TH
TTITLE4=DEGAGE #1
TTITLE5=DEGAGE #2
TTITLE6=RONDE DE JAMBE A TERRE
TTITLE7=FRAPPE and PETIT BATTEMENTS
TTITLE8=FONDUS
TTITLE9=ROND DE JAMBE EN L'AIR
TTITLE10=ADAGIO
TTITLE11=GRAND BATTEMENTS
TTITLE12=ADAGIO
TTITLE13=CENTER PRACTICE
TTITLE14=GRAND BATTEMENTS
TTITLE15=PIROUETTES #1
TTITLE16=PIROUETTES #2
TTITLE17=CENTER PRACTICE
TTITLE18=PETIT SAUTE
TTITLE19=ALLEGRO #1
TTITLE20=ALLEGRO #2
TTITLE21=GRAND ALLEGRO
TTITLE22=PIQUE TURNS
TTITLE23=REVERANCE
EXTD=YEAR: 2000
EXTT0=
EXTT1=
EXTT2=
EXTT3=
EXTT4=
EXTT5=
EXTT6=
EXTT7=
EXTT8=
EXTT9=
EXTT10=
EXTT11=
EXTT12=
EXTT13=
EXTT14=
EXTT15=
EXTT16=
EXTT17=
EXTT18=
EXTT19=
EXTT20=
EXTT21=
EXTT22=
EXTT23=
PLAYORDER=
